HIERARCHY
ROOT Hips
{
	OFFSET 0.000000 0.000000 0.000000
	CHANNELS 6 Xposition Yposition Zposition Zrotation Yrotation Xrotation 
	JOINT LHipJoint
	{
		OFFSET 0.000000 0.000000 0.000000
		CHANNELS 3 Zrotation Yrotation Xrotation
		JOINT LeftUpLeg
		{
			OFFSET 1.363060 -1.794630 0.839290
			CHANNELS 3 Zrotation Yrotation Xrotation
			JOINT LeftLeg
			{
				OFFSET 2.448110 -6.726130 0.000000
				CHANNELS 3 Zrotation Yrotation Xrotation
				JOINT LeftFoot
				{
					OFFSET 2.562200 -7.039590 0.000000
					CHANNELS 3 Zrotation Yrotation Xrotation
					JOINT LeftToeBase
					{
						OFFSET 0.157640 -0.433110 2.322550
						CHANNELS 3 Zrotation Yrotation Xrotation
						End Site
						{
							OFFSET 0.000000 0.000000 0.000000
						}
					}
				}
			}
		}
	}
	JOINT RHipJoint
	{
		OFFSET 0.000000 0.000000 0.000000
		CHANNELS 3 Zrotation Yrotation Xrotation
		JOINT RightUpLeg
		{
			OFFSET -1.305520 -1.794630 0.839290
			CHANNELS 3 Zrotation Yrotation Xrotation
			JOINT RightLeg
			{
				OFFSET -2.542530 -6.985550 0.000000
				CHANNELS 3 Zrotation Yrotation Xrotation
				JOINT RightFoot
				{
					OFFSET -2.568260 -7.056230 0.000000
					CHANNELS 3 Zrotation Yrotation Xrotation
					JOINT RightToeBase
					{
						OFFSET -0.164730 -0.452590 2.363150
						CHANNELS 3 Zrotation Yrotation Xrotation
						End Site
						{
							OFFSET 0.000000 0.000000 0.000000
						}
					}
				}
			}
		}
	}
	JOINT LowerBack
	{
		OFFSET 0.000000 0.000000 0.000000
		CHANNELS 3 Zrotation Yrotation Xrotation
		JOINT Spine
		{
			OFFSET 0.028270 2.035590 -0.193380
			CHANNELS 3 Zrotation Yrotation Xrotation
			JOINT Spine1
			{
				OFFSET 0.056720 2.048850 -0.042750
				CHANNELS 3 Zrotation Yrotation Xrotation
				JOINT Neck
				{
					OFFSET 0.000000 0.000000 0.000000
					CHANNELS 3 Zrotation Yrotation Xrotation
					JOINT Neck1
					{
						OFFSET -0.054170 1.746240 0.172020
						CHANNELS 3 Zrotation Yrotation Xrotation
						JOINT Head
						{
							OFFSET 0.104070 1.761360 -0.123970
							CHANNELS 3 Zrotation Yrotation Xrotation
							End Site
							{
								OFFSET 0.000000 0.000000 0.000000
							}
						}
					}
				}
				JOINT LeftShoulder
				{
					OFFSET 0.000000 0.000000 0.000000
					CHANNELS 3 Zrotation Yrotation Xrotation
					JOINT LeftArm
					{
						OFFSET 3.362410 1.200890 -0.311210
						CHANNELS 3 Zrotation Yrotation Xrotation
						JOINT LeftForeArm
						{
							OFFSET 4.983000 -0.000000 -0.000000
							CHANNELS 3 Zrotation Yrotation Xrotation
							JOINT LeftHand
							{
								OFFSET 3.483560 -0.000000 -0.000000
								CHANNELS 3 Zrotation Yrotation Xrotation
								JOINT LeftFingerBase
								{
									OFFSET 0.000000 0.000000 0.000000
									CHANNELS 3 Zrotation Yrotation Xrotation
									JOINT LeftHandIndex1
									{
										OFFSET 0.715260 -0.000000 -0.000000
										CHANNELS 3 Zrotation Yrotation Xrotation
										End Site
										{
											OFFSET 0.000000 0.000000 0.000000
										}
									}
								}
								JOINT LThumb
								{
									OFFSET 0.000000 0.000000 0.000000
									CHANNELS 3 Zrotation Yrotation Xrotation
									End Site
									{
										OFFSET 0.000000 0.000000 0.000000
									}
								}
							}
						}
					}
				}
				JOINT RightShoulder
				{
					OFFSET 0.000000 0.000000 0.000000
					CHANNELS 3 Zrotation Yrotation Xrotation
					JOINT RightArm
					{
						OFFSET -3.136600 1.374050 -0.404650
						CHANNELS 3 Zrotation Yrotation Xrotation
						JOINT RightForeArm
						{
							OFFSET -5.241900 -0.000000 -0.000000
							CHANNELS 3 Zrotation Yrotation Xrotation
							JOINT RightHand
							{
								OFFSET -3.444170 -0.000000 -0.000000
								CHANNELS 3 Zrotation Yrotation Xrotation
								JOINT RightFingerBase
								{
									OFFSET 0.000000 0.000000 0.000000
									CHANNELS 3 Zrotation Yrotation Xrotation
									JOINT RightHandIndex1
									{
										OFFSET -0.622530 -0.000000 -0.000000
										CHANNELS 3 Zrotation Yrotation Xrotation
										End Site
										{
											OFFSET 0.000000 0.000000 0.000000
										}
									}
								}
								JOINT RThumb
								{
									OFFSET 0.000000 0.000000 0.000000
									CHANNELS 3 Zrotation Yrotation Xrotation
									End Site
									{
										OFFSET 0.000000 0.000000 0.000000
									}
								}
							}
						}
					}
				}
			}
		}
	}
}
MOTION
Frames: 12
Frame Time: 0.008333
0.754191 18.126110 -2.317919 6.944733 9.454622 6.740168 -5.174392 -1.165005 2.137131 -12.615743 1.162463 1.899479 1.254730 10.048352 26.340017 -0.370373 10.686622 20.277914 0.859700 -5.912900 -16.531800 3.487914 1.691502 -0.982467 2.826380 0.337855 -23.022955 -2.276128 -10.514418 28.114571 4.958178 -20.999133 1.875043 -0.038600 1.268400 -3.487800 4.493221 -0.207813 9.882048 6.091202 0.585914 -0.795741 3.804693 0.329660 -5.447113 6.469388 2.397382 -20.142712 -12.412927 1.991738 8.768771 -8.186200 -0.241700 8.526500 3.544484 -1.662947 0.191594 -54.591644 4.197718 -22.971801 31.871795 -41.714297 -11.052247 0.348927 0.574520 -11.538667 20.590762 -0.696307 -0.450200 -7.125000 0.000000 0.000000 -5.003400 28.657600 1.997900 -2.221138 0.514535 0.381912 34.729837 -3.603714 -33.622431 -21.430510 30.769846 -5.667824 0.023052 -0.525766 0.477243 -23.102195 -3.184820 1.115200 7.125000 0.000000 0.000000 2.809800 -32.810600 0.839900 
0.728455 18.137438 -2.226899 6.974866 9.364689 6.781006 -5.164183 -1.179825 2.112916 -12.535293 1.362123 1.602944 1.369261 10.232121 26.903831 -0.279176 10.724270 20.998350 0.769300 -5.600600 -15.629800 3.487687 1.690208 -0.956770 2.969763 0.139014 -22.889755 -2.270065 -10.520375 28.151413 4.890166 -20.730530 1.714664 -0.043400 1.343900 -3.695500 4.672432 -0.160676 9.813015 6.249862 0.674718 -0.829342 3.854722 0.374702 -5.453719 6.504379 2.470794 -20.164566 -12.720434 2.097965 8.684008 -8.299600 -0.222100 8.522500 3.549508 -1.676240 0.192446 -54.345299 4.355734 -23.150895 31.930454 -41.758878 -11.083260 0.348250 0.577996 -11.595253 20.599562 -0.660552 -0.438500 -7.125000 0.000000 0.000000 -4.998400 28.692000 1.991800 -2.217057 0.507693 0.380142 34.813959 -3.584089 -33.733433 -21.447504 30.791924 -5.677965 0.022525 -0.525764 0.483006 -23.209160 -3.171875 1.115200 7.125000 0.000000 0.000000 2.723000 -32.798800 0.814600 
0.703514 18.147871 -2.138066 7.020141 9.272009 6.829799 -5.155385 -1.194909 2.088018 -12.479699 1.548960 1.308698 1.485034 10.412619 27.456226 -0.196785 10.810208 21.702934 0.692300 -5.319100 -14.820900 3.486606 1.689011 -0.932795 3.089132 -0.038427 -22.769064 -2.267862 -10.531064 28.204549 4.826900 -20.475568 1.536459 -0.047600 1.408200 -3.872700 4.827487 -0.121859 9.758336 6.405572 0.750193 -0.862838 3.917166 0.414161 -5.468091 6.556299 2.557782 -20.156828 -13.041575 2.212257 8.559604 -8.417600 -0.198500 8.500600 3.554495 -1.691978 0.193582 -54.099136 4.543963 -23.350638 31.997979 -41.810677 -11.119788 0.347716 0.582266 -11.667751 20.629300 -0.607700 -0.421200 -7.125000 0.000000 0.000000 -4.978200 28.743800 1.977600 -2.212756 0.498145 0.378668 34.886023 -3.517086 -33.841286 -21.461692 30.811731 -5.686755 0.021850 -0.525531 0.501919 -23.312556 -3.144857 1.109000 7.125000 0.000000 0.000000 2.638200 -32.771900 0.791000 
0.679765 18.156814 -2.051418 7.094253 9.170121 6.883073 -5.148035 -1.210861 2.062297 -12.468810 1.728017 1.023746 1.602787 10.591039 28.000433 -0.122677 10.941317 22.387339 0.624600 -5.057200 -14.071900 3.483794 1.687565 -0.910346 3.169587 -0.204893 -22.660333 -2.270055 -10.546556 28.274476 4.765457 -20.225386 1.350730 -0.051400 1.462500 -4.022300 4.959981 -0.084644 9.717564 6.546926 0.820888 -0.893565 3.977524 0.452250 -5.487775 6.608247 2.644031 -20.100667 -13.360253 2.314927 8.388464 -8.531800 -0.178400 8.451200 3.559561 -1.710410 0.195227 -53.841844 4.721328 -23.592682 32.047036 -41.846933 -11.144615 0.347866 0.585153 -11.707450 20.653857 -0.603939 -0.421400 -7.125000 0.000000 0.000000 -4.960000 28.744800 1.970200 -2.208847 0.485900 0.376910 34.963051 -3.449316 -33.894406 -21.488233 30.846341 -5.701381 0.021388 -0.525160 0.513895 -23.388308 -3.101169 1.094100 7.125000 0.000000 0.000000 2.575100 -32.726400 0.774800 
0.657110 18.164764 -1.966659 7.182441 9.062201 6.939641 -5.141738 -1.226934 2.035946 -12.486371 1.896195 0.744384 1.723507 10.769253 28.542419 -0.054284 11.114426 23.064014 0.565800 -4.817400 -13.388600 3.480297 1.686229 -0.889311 3.227365 -0.353987 -22.559898 -2.275975 -10.566121 28.358339 4.709688 -19.993252 1.149904 -0.054400 1.505600 -4.141200 5.083153 -0.052651 9.688576 6.680742 0.884059 -0.920993 4.036395 0.486436 -5.509260 6.611845 2.716314 -20.057244 -13.638067 2.406539 8.207107 -8.621900 -0.163200 8.398000 3.564553 -1.726991 0.195997 -53.580575 4.889989 -23.881279 32.078184 -41.868283 -11.158123 0.348105 0.587979 -11.753331 20.675249 -0.607005 -0.423900 -7.125000 0.000000 0.000000 -4.944100 28.738700 1.964600 -2.205381 0.474146 0.375020 35.040046 -3.357813 -33.922194 -21.516528 30.883052 -5.716756 0.021022 -0.524746 0.543721 -23.450803 -3.063272 1.081000 7.125000 0.000000 0.000000 2.522800 -32.686900 0.761500 
0.635547 18.171719 -1.884185 7.281315 8.943974 6.993343 -5.136220 -1.243207 2.008896 -12.530134 2.059148 0.470293 1.849095 10.949367 29.088626 0.006608 11.332810 23.724828 0.515100 -4.600200 -12.771700 3.476473 1.684792 -0.869518 3.266344 -0.477809 -22.461478 -2.285143 -10.589426 28.454542 4.661253 -19.785162 0.933373 -0.056700 1.536700 -4.226800 5.204497 -0.018330 9.674587 6.804630 0.950407 -0.944209 4.085072 0.522182 -5.534359 6.606319 2.779701 -20.008512 -13.908612 2.485850 8.022043 -8.708500 -0.152900 8.340500 3.569536 -1.743266 0.196614 -53.313826 5.034248 -24.205125 32.097331 -41.880164 -11.163908 0.348339 0.590452 -11.771490 20.687824 -0.612234 -0.427000 -7.125000 0.000000 0.000000 -4.934600 28.730600 1.961700 -2.202219 0.462312 0.372946 35.123403 -3.273941 -33.898481 -21.554179 30.930673 -5.736664 0.020828 -0.524328 0.527713 -23.499848 -3.003224 1.057600 7.125000 0.000000 0.000000 2.480700 -32.623000 0.752600 
0.614780 18.177582 -1.803797 7.385839 8.820514 7.037770 -5.131276 -1.259074 1.981244 -12.592463 2.211501 0.205615 1.980598 11.132723 29.643060 0.066729 11.596102 24.408655 0.465600 -4.376800 -12.139100 3.472853 1.682936 -0.850312 3.293100 -0.574130 -22.355263 -2.296607 -10.615546 28.558828 4.621254 -19.606694 0.702795 -0.058500 1.560800 -4.293200 5.323152 0.015892 9.675066 6.921271 1.016942 -0.958296 4.126758 0.557832 -5.557511 6.608277 2.852246 -19.962127 -14.179018 2.573622 7.823908 -8.794800 -0.138000 8.280800 3.574611 -1.759474 0.197319 -53.041610 5.169864 -24.540417 32.122568 -41.897789 -11.173762 0.348343 0.593451 -11.804715 20.703813 -0.601325 -0.424400 -7.125000 0.000000 0.000000 -4.923300 28.738900 1.956200 -2.199137 0.449988 0.371225 35.214450 -3.170355 -33.888254 -21.581782 30.966770 -5.751492 0.020519 -0.523772 0.571084 -23.536469 -2.956352 1.039200 7.125000 0.000000 0.000000 2.448900 -32.573300 0.745900 
0.595006 18.182153 -1.724801 7.491527 8.694710 7.065879 -5.126284 -1.274124 1.953197 -12.669919 2.350861 -0.042850 2.118061 11.319568 30.207406 0.125415 11.892391 25.093526 0.419300 -4.156400 -11.517100 3.469516 1.680367 -0.830842 3.311743 -0.646793 -22.231218 -2.310040 -10.644187 28.669981 4.588615 -19.454650 0.460560 -0.060100 1.582100 -4.352000 5.440249 0.046204 9.682396 7.035014 1.077764 -0.961886 4.166767 0.590360 -5.572226 6.606113 2.924216 -19.923335 -14.439010 2.664976 7.646130 -8.877300 -0.120200 8.230900 3.579451 -1.773901 0.197625 -52.768715 5.296287 -24.893592 32.149014 -41.916822 -11.184193 0.347874 0.596707 -11.852018 20.707422 -0.580942 -0.418100 -7.125000 0.000000 0.000000 -4.921700 28.757200 1.953400 -2.196307 0.438978 0.369530 35.312573 -3.056122 -33.844518 -21.612229 31.006702 -5.768860 0.020545 -0.523606 0.561417 -23.622125 -2.961257 1.045500 7.125000 0.000000 0.000000 2.379900 -32.580600 0.724400 
0.575927 18.185432 -1.647395 7.586303 8.563304 7.074093 -5.121146 -1.288160 1.925190 -12.748025 2.477751 -0.275742 2.260751 11.508129 30.778359 0.186089 12.211559 25.788314 0.375900 -3.937800 -10.901600 3.467296 1.676979 -0.811019 3.334959 -0.682843 -22.083585 -2.324023 -10.674362 28.783946 4.563655 -19.330596 0.206634 -0.061600 1.601500 -4.405500 5.565299 0.076549 9.707897 7.146476 1.140834 -0.955295 4.198035 0.624099 -5.587491 6.662643 3.023088 -19.842221 -14.736138 2.774424 7.439181 -8.980400 -0.091600 8.167500 3.584295 -1.791200 0.199093 -52.487818 5.429361 -25.225391 32.192627 -41.950537 -11.205794 0.347500 0.600578 -11.929888 20.731425 -0.551145 -0.408900 -7.125000 0.000000 0.000000 -4.905100 28.785100 1.943500 -2.193540 0.425372 0.368489 35.420860 -2.915381 -33.821796 -21.629987 31.032601 -5.779912 0.020366 -0.523191 0.575366 -23.698977 -2.957340 1.047600 7.125000 0.000000 0.000000 2.317700 -32.578200 0.705500 
0.557743 18.187419 -1.571379 7.667918 8.418018 7.061807 -5.115736 -1.301051 1.897579 -12.826650 2.596861 -0.492718 2.407237 11.696830 31.351857 0.245290 12.545035 26.462603 0.335100 -3.720000 -10.290200 3.466375 1.672965 -0.791008 3.362312 -0.674991 -21.908084 -2.338068 -10.705326 28.898171 4.544752 -19.230543 -0.052640 -0.063100 1.620400 -4.457800 5.693988 0.106457 9.748595 7.260061 1.204882 -0.939350 4.228509 0.657975 -5.601200 6.752779 3.139200 -19.770442 -15.054596 2.903573 7.243033 -9.097500 -0.053300 8.115000 3.589215 -1.808089 0.200883 -52.205801 5.568191 -25.541358 32.244698 -41.991132 -11.232489 0.346919 0.603872 -12.017954 20.737913 -0.545994 -0.408200 -7.125000 0.000000 0.000000 -4.900800 28.787500 1.941500 -2.190595 0.412549 0.368017 35.540793 -2.762645 -33.793573 -21.647536 31.058409 -5.790768 0.020199 -0.522674 0.579309 -23.763212 -2.938455 1.042600 7.125000 0.000000 0.000000 2.265000 -32.559500 0.690500 
0.539957 18.188810 -1.496358 7.724203 8.280493 7.028512 -5.109618 -1.312122 1.870397 -12.884472 2.689966 -0.691681 2.555602 11.883456 31.923146 0.304255 12.875447 27.109155 0.299200 -3.517100 -9.721800 3.467400 1.668017 -0.769709 3.409765 -0.629558 -21.697327 -2.350814 -10.735879 29.007723 4.534772 -19.163500 -0.330175 -0.064600 1.639600 -4.510600 5.837702 0.129955 9.802453 7.380421 1.264507 -0.919969 4.258500 0.689209 -5.618875 6.828598 3.242977 -19.670724 -15.351117 3.015104 7.042510 -9.203900 -0.020300 8.052500 3.593588 -1.824533 0.202494 -51.919637 5.697503 -25.845096 32.291748 -42.027720 -11.256459 0.346902 0.606967 -12.129296 20.761931 -0.560746 -0.415000 -7.125000 0.000000 0.000000 -4.882700 28.769300 1.936400 -2.188483 0.398931 0.367441 35.670000 -2.586939 -33.785163 -21.654784 31.072402 -5.796505 0.019738 -0.521965 0.625070 -23.825265 -2.911332 1.033900 7.125000 0.000000 0.000000 2.213800 -32.531900 0.676400 
0.523164 18.189407 -1.422628 7.772047 8.154080 6.985958 -5.103744 -1.322359 1.842632 -12.941956 2.740104 -0.874022 2.704318 12.067039 32.488065 0.360397 13.206312 27.719963 0.264100 -3.306400 -9.132900 3.469306 1.662333 -0.747473 3.458591 -0.563959 -21.464934 -2.362113 -10.764546 29.110032 4.530168 -19.116024 -0.619711 -0.065600 1.652000 -4.544900 5.987930 0.148542 9.860427 7.501432 1.318834 -0.897875 4.285805 0.717640 -5.635663 6.904278 3.342144 -19.570472 -15.642416 3.118079 6.837314 -9.308900 0.009700 7.987200 3.597905 -1.840625 0.204176 -51.629611 5.820098 -26.121891 32.334534 -42.061126 -11.278342 0.347516 0.610245 -12.227248 20.814289 -0.568940 -0.420200 -7.125000 0.000000 0.000000 -4.843200 28.757500 1.922000 -2.186698 0.384966 0.366970 35.808533 -2.396984 -33.796287 -21.651405 31.074135 -5.796852 0.018876 -0.520984 0.731819 -23.873572 -2.863022 1.015300 7.125000 0.000000 0.000000 2.172700 -32.481300 0.666400 
